<svg width="1848" height="482" viewBox="0 0 1848 482" fill="none" xmlns="http://www.w3.org/2000/svg">
<g clip-path="url(#clip0_2012_4265)">
<rect width="1848" height="482" fill="#0F0F0F"/>
<line x1="0.0372915" y1="399.251" x2="1848.04" y2="491.251" stroke="#292929" stroke-width="1.5"/>
<line x1="0.0372915" y1="319.251" x2="1848.04" y2="411.251" stroke="#292929" stroke-width="1.5"/>
<line x1="10.0373" y1="179.251" x2="1858.04" y2="271.251" stroke="#292929" stroke-width="1.5"/>
<line x1="0.0372915" y1="249.251" x2="1848.04" y2="341.251" stroke="#292929" stroke-width="1.5"/>
<line x1="0.0372915" y1="-30.7491" x2="1848.04" y2="61.2509" stroke="#292929" stroke-width="1.5"/>
<line x1="0.0372915" y1="39.2509" x2="1848.04" y2="131.251" stroke="#292929" stroke-width="1.5"/>
<line x1="0.0372915" y1="109.251" x2="1848.04" y2="201.251" stroke="#292929" stroke-width="1.5"/>
<line x1="-116.607" y1="350.56" x2="232.393" y2="-131.44" stroke="#222222" stroke-width="1.5"/>
<line x1="-44.6046" y1="436.556" x2="372.395" y2="-131.444" stroke="#222222" stroke-width="1.5"/>
<line x1="43.3928" y1="515.56" x2="512.393" y2="-131.44" stroke="#222222" stroke-width="1.5"/>
<line x1="213.393" y1="515.56" x2="682.393" y2="-131.44" stroke="#222222" stroke-width="1.5"/>
<line x1="393.393" y1="515.56" x2="862.393" y2="-131.44" stroke="#222222" stroke-width="1.5"/>
<line x1="603.393" y1="515.56" x2="1072.39" y2="-131.44" stroke="#222222" stroke-width="1.5"/>
<line x1="793.393" y1="515.56" x2="1262.39" y2="-131.44" stroke="#222222" stroke-width="1.5"/>
<line x1="993.393" y1="515.56" x2="1462.39" y2="-131.44" stroke="#222222" stroke-width="1.5"/>
<line x1="1183.39" y1="515.56" x2="1652.39" y2="-131.44" stroke="#222222" stroke-width="1.5"/>
<line x1="1383.39" y1="515.56" x2="1852.39" y2="-131.44" stroke="#222222" stroke-width="1.5"/>
<line x1="1563.39" y1="515.56" x2="2032.39" y2="-131.44" stroke="#222222" stroke-width="1.5"/>
<path d="M489 135L663.5 143L616.5 209L444 200.5L489 135Z" fill="#1F1F1F"/>
<path d="M565 278L763.5 290L716.5 356L519 344L565 278Z" fill="#1F1F1F"/>
<path d="M180 329L343 337L287.5 412.5L125 404.5L180 329Z" fill="#1F1F1F"/>
<path d="M951.818 299L1145 307L1096 373.5L902 364.5L951.818 299Z" fill="#1F1F1F"/>
<path d="M1618 190.5L1793.5 198.5L1747 264L1572 258L1618 190.5Z" fill="#1F1F1F"/>
<path d="M1099 95L1291 105L1243 172.5L1049 163.5L1099 95Z" fill="#1F1F1F"/>
</g>
<defs>
<clipPath id="clip0_2012_4265">
<rect width="1848" height="482" fill="white"/>
</clipPath>
</defs>
</svg>
