<svg width="598" height="384" viewBox="0 0 598 384" fill="none" xmlns="http://www.w3.org/2000/svg">
<path d="M55 60.5H530C535.247 60.5 539.5 64.7533 539.5 70V315C539.5 325.77 530.77 334.5 520 334.5H65C54.2304 334.5 45.5 325.77 45.5 315V70C45.5 64.7533 49.7533 60.5 55 60.5Z" fill="url(#paint0_linear_2005_4336)" stroke="#343333"/>
<path d="M55 60.5H530C535.247 60.5 539.5 64.7533 539.5 70V94.5H45.5V70C45.5 64.7533 49.7533 60.5 55 60.5Z" fill="#121212" stroke="#3C3C3C"/>
<path d="M472.048 75.424V76.016H470.528V81H469.8V76.016H468.272V75.424H472.048ZM476.744 78.64C476.744 78.7787 476.736 78.9253 476.72 79.08H473.216C473.243 79.512 473.389 79.8507 473.656 80.096C473.928 80.336 474.256 80.456 474.64 80.456C474.955 80.456 475.216 80.384 475.424 80.24C475.637 80.0907 475.787 79.8933 475.872 79.648H476.656C476.539 80.0693 476.304 80.4133 475.952 80.68C475.6 80.9413 475.163 81.072 474.64 81.072C474.224 81.072 473.851 80.9787 473.52 80.792C473.195 80.6053 472.939 80.3413 472.752 80C472.565 79.6533 472.472 79.2533 472.472 78.8C472.472 78.3467 472.563 77.9493 472.744 77.608C472.925 77.2667 473.179 77.0053 473.504 76.824C473.835 76.6373 474.213 76.544 474.64 76.544C475.056 76.544 475.424 76.6347 475.744 76.816C476.064 76.9973 476.309 77.248 476.48 77.568C476.656 77.8827 476.744 78.24 476.744 78.64ZM475.992 78.488C475.992 78.2107 475.931 77.9733 475.808 77.776C475.685 77.5733 475.517 77.4213 475.304 77.32C475.096 77.2133 474.864 77.16 474.608 77.16C474.24 77.16 473.925 77.2773 473.664 77.512C473.408 77.7467 473.261 78.072 473.224 78.488H475.992ZM478.233 77.328C478.361 77.0773 478.542 76.8827 478.777 76.744C479.017 76.6053 479.308 76.536 479.649 76.536V77.288H479.457C478.641 77.288 478.233 77.7307 478.233 78.616V81H477.505V76.616H478.233V77.328ZM485.561 76.536C485.903 76.536 486.207 76.608 486.473 76.752C486.74 76.8907 486.951 77.1013 487.105 77.384C487.26 77.6667 487.337 78.0107 487.337 78.416V81H486.617V78.52C486.617 78.0827 486.508 77.7493 486.289 77.52C486.076 77.2853 485.785 77.168 485.417 77.168C485.039 77.168 484.737 77.2907 484.513 77.536C484.289 77.776 484.177 78.1253 484.177 78.584V81H483.457V78.52C483.457 78.0827 483.348 77.7493 483.129 77.52C482.916 77.2853 482.625 77.168 482.257 77.168C481.879 77.168 481.577 77.2907 481.353 77.536C481.129 77.776 481.017 78.1253 481.017 78.584V81H480.289V76.616H481.017V77.248C481.161 77.0187 481.353 76.8427 481.593 76.72C481.839 76.5973 482.108 76.536 482.401 76.536C482.769 76.536 483.095 76.6187 483.377 76.784C483.66 76.9493 483.871 77.192 484.009 77.512C484.132 77.2027 484.335 76.9627 484.617 76.792C484.9 76.6213 485.215 76.536 485.561 76.536ZM488.708 75.904C488.569 75.904 488.452 75.856 488.356 75.76C488.26 75.664 488.212 75.5467 488.212 75.408C488.212 75.2693 488.26 75.152 488.356 75.056C488.452 74.96 488.569 74.912 488.708 74.912C488.841 74.912 488.953 74.96 489.044 75.056C489.14 75.152 489.188 75.2693 489.188 75.408C489.188 75.5467 489.14 75.664 489.044 75.76C488.953 75.856 488.841 75.904 488.708 75.904ZM489.06 76.616V81H488.332V76.616H489.06ZM492.236 76.536C492.77 76.536 493.202 76.6987 493.532 77.024C493.863 77.344 494.028 77.808 494.028 78.416V81H493.308V78.52C493.308 78.0827 493.199 77.7493 492.98 77.52C492.762 77.2853 492.463 77.168 492.084 77.168C491.7 77.168 491.394 77.288 491.164 77.528C490.94 77.768 490.828 78.1173 490.828 78.576V81H490.1V76.616H490.828V77.24C490.972 77.016 491.167 76.8427 491.412 76.72C491.663 76.5973 491.938 76.536 492.236 76.536ZM494.746 78.792C494.746 78.344 494.836 77.952 495.018 77.616C495.199 77.2747 495.447 77.0107 495.762 76.824C496.082 76.6373 496.436 76.544 496.826 76.544C497.21 76.544 497.543 76.6267 497.826 76.792C498.108 76.9573 498.319 77.1653 498.458 77.416V76.616H499.194V81H498.458V80.184C498.314 80.44 498.098 80.6533 497.81 80.824C497.527 80.9893 497.196 81.072 496.818 81.072C496.428 81.072 496.076 80.976 495.762 80.784C495.447 80.592 495.199 80.3227 495.018 79.976C494.836 79.6293 494.746 79.2347 494.746 78.792ZM498.458 78.8C498.458 78.4693 498.391 78.1813 498.258 77.936C498.124 77.6907 497.943 77.504 497.714 77.376C497.49 77.2427 497.242 77.176 496.97 77.176C496.698 77.176 496.45 77.24 496.226 77.368C496.002 77.496 495.823 77.6827 495.69 77.928C495.556 78.1733 495.49 78.4613 495.49 78.792C495.49 79.128 495.556 79.4213 495.69 79.672C495.823 79.9173 496.002 80.1067 496.226 80.24C496.45 80.368 496.698 80.432 496.97 80.432C497.242 80.432 497.49 80.368 497.714 80.24C497.943 80.1067 498.124 79.9173 498.258 79.672C498.391 79.4213 498.458 79.1307 498.458 78.8ZM500.952 75.08V81H500.224V75.08H500.952Z" fill="white"/>
<circle cx="67" cy="78" r="7" fill="#AAFF8E"/>
<circle cx="87" cy="78" r="7" fill="#FFCE51"/>
<circle cx="107" cy="78" r="7" fill="#FF3939"/>
<path d="M69.97 122.4C70.3967 122.4 70.7733 122.487 71.1 122.66C71.4333 122.827 71.6933 123.037 71.88 123.29V122.49H73.03V128.09C73.03 128.597 72.9233 129.047 72.71 129.44C72.4967 129.84 72.1867 130.153 71.78 130.38C71.38 130.607 70.9 130.72 70.34 130.72C69.5933 130.72 68.9733 130.543 68.48 130.19C67.9867 129.843 67.7067 129.37 67.64 128.77H68.77C68.8567 129.057 69.04 129.287 69.32 129.46C69.6067 129.64 69.9467 129.73 70.34 129.73C70.8 129.73 71.17 129.59 71.45 129.31C71.7367 129.03 71.88 128.623 71.88 128.09V127.17C71.6867 127.43 71.4233 127.65 71.09 127.83C70.7633 128.003 70.39 128.09 69.97 128.09C69.49 128.09 69.05 127.97 68.65 127.73C68.2567 127.483 67.9433 127.143 67.71 126.71C67.4833 126.27 67.37 125.773 67.37 125.22C67.37 124.667 67.4833 124.177 67.71 123.75C67.9433 123.323 68.2567 122.993 68.65 122.76C69.05 122.52 69.49 122.4 69.97 122.4ZM71.88 125.24C71.88 124.86 71.8 124.53 71.64 124.25C71.4867 123.97 71.2833 123.757 71.03 123.61C70.7767 123.463 70.5033 123.39 70.21 123.39C69.9167 123.39 69.6433 123.463 69.39 123.61C69.1367 123.75 68.93 123.96 68.77 124.24C68.6167 124.513 68.54 124.84 68.54 125.22C68.54 125.6 68.6167 125.933 68.77 126.22C68.93 126.507 69.1367 126.727 69.39 126.88C69.65 127.027 69.9233 127.1 70.21 127.1C70.5033 127.1 70.7767 127.027 71.03 126.88C71.2833 126.733 71.4867 126.52 71.64 126.24C71.8 125.953 71.88 125.62 71.88 125.24ZM74.9073 121.76C74.7007 121.76 74.5273 121.69 74.3873 121.55C74.2473 121.41 74.1773 121.237 74.1773 121.03C74.1773 120.823 74.2473 120.65 74.3873 120.51C74.5273 120.37 74.7007 120.3 74.9073 120.3C75.1073 120.3 75.2773 120.37 75.4173 120.51C75.5573 120.65 75.6273 120.823 75.6273 121.03C75.6273 121.237 75.5573 121.41 75.4173 121.55C75.2773 121.69 75.1073 121.76 74.9073 121.76ZM75.4673 122.49V128H74.3273V122.49H75.4673ZM78.0941 123.42V126.47C78.0941 126.677 78.1407 126.827 78.2341 126.92C78.3341 127.007 78.5007 127.05 78.7341 127.05H79.4341V128H78.5341C78.0207 128 77.6274 127.88 77.3541 127.64C77.0807 127.4 76.9441 127.01 76.9441 126.47V123.42H76.2941V122.49H76.9441V121.12H78.0941V122.49H79.4341V123.42H78.0941ZM89.4777 128.09C89.0444 128.09 88.6544 128.013 88.3077 127.86C87.9677 127.7 87.6977 127.487 87.4977 127.22C87.2977 126.947 87.1911 126.643 87.1777 126.31H88.3577C88.3777 126.543 88.4877 126.74 88.6877 126.9C88.8944 127.053 89.1511 127.13 89.4577 127.13C89.7777 127.13 90.0244 127.07 90.1977 126.95C90.3777 126.823 90.4677 126.663 90.4677 126.47C90.4677 126.263 90.3677 126.11 90.1677 126.01C89.9744 125.91 89.6644 125.8 89.2377 125.68C88.8244 125.567 88.4877 125.457 88.2277 125.35C87.9677 125.243 87.7411 125.08 87.5477 124.86C87.3611 124.64 87.2677 124.35 87.2677 123.99C87.2677 123.697 87.3544 123.43 87.5277 123.19C87.7011 122.943 87.9477 122.75 88.2677 122.61C88.5944 122.47 88.9677 122.4 89.3877 122.4C90.0144 122.4 90.5177 122.56 90.8977 122.88C91.2844 123.193 91.4911 123.623 91.5177 124.17H90.3777C90.3577 123.923 90.2577 123.727 90.0777 123.58C89.8977 123.433 89.6544 123.36 89.3477 123.36C89.0477 123.36 88.8177 123.417 88.6577 123.53C88.4977 123.643 88.4177 123.793 88.4177 123.98C88.4177 124.127 88.4711 124.25 88.5777 124.35C88.6844 124.45 88.8144 124.53 88.9677 124.59C89.1211 124.643 89.3477 124.713 89.6477 124.8C90.0477 124.907 90.3744 125.017 90.6277 125.13C90.8877 125.237 91.1111 125.397 91.2977 125.61C91.4844 125.823 91.5811 126.107 91.5877 126.46C91.5877 126.773 91.5011 127.053 91.3277 127.3C91.1544 127.547 90.9077 127.74 90.5877 127.88C90.2744 128.02 89.9044 128.09 89.4777 128.09ZM97.5795 122.49L94.1995 130.59H93.0195L94.1395 127.91L91.9695 122.49H93.2395L94.7895 126.69L96.3995 122.49H97.5795ZM101.02 122.4C101.453 122.4 101.84 122.49 102.18 122.67C102.527 122.85 102.797 123.117 102.99 123.47C103.183 123.823 103.28 124.25 103.28 124.75V128H102.15V124.92C102.15 124.427 102.027 124.05 101.78 123.79C101.533 123.523 101.197 123.39 100.77 123.39C100.343 123.39 100.003 123.523 99.7498 123.79C99.5032 124.05 99.3798 124.427 99.3798 124.92V128H98.2398V122.49H99.3798V123.12C99.5665 122.893 99.8032 122.717 100.09 122.59C100.383 122.463 100.693 122.4 101.02 122.4ZM104.154 125.24C104.154 124.673 104.267 124.177 104.494 123.75C104.727 123.317 105.047 122.983 105.454 122.75C105.861 122.517 106.327 122.4 106.854 122.4C107.521 122.4 108.071 122.56 108.504 122.88C108.944 123.193 109.241 123.643 109.394 124.23H108.164C108.064 123.957 107.904 123.743 107.684 123.59C107.464 123.437 107.187 123.36 106.854 123.36C106.387 123.36 106.014 123.527 105.734 123.86C105.461 124.187 105.324 124.647 105.324 125.24C105.324 125.833 105.461 126.297 105.734 126.63C106.014 126.963 106.387 127.13 106.854 127.13C107.514 127.13 107.951 126.84 108.164 126.26H109.394C109.234 126.82 108.934 127.267 108.494 127.6C108.054 127.927 107.507 128.09 106.854 128.09C106.327 128.09 105.861 127.973 105.454 127.74C105.047 127.5 104.727 127.167 104.494 126.74C104.267 126.307 104.154 125.807 104.154 125.24ZM121.753 123.9V124.86H117.643V123.9H121.753ZM128.163 122.49V128H127.023V127.35C126.843 127.577 126.606 127.757 126.313 127.89C126.026 128.017 125.719 128.08 125.393 128.08C124.959 128.08 124.569 127.99 124.223 127.81C123.883 127.63 123.613 127.363 123.413 127.01C123.219 126.657 123.123 126.23 123.123 125.73V122.49H124.253V125.56C124.253 126.053 124.376 126.433 124.623 126.7C124.869 126.96 125.206 127.09 125.633 127.09C126.059 127.09 126.396 126.96 126.643 126.7C126.896 126.433 127.023 126.053 127.023 125.56V122.49H128.163ZM138.79 126.98L140.35 122.49H141.56L139.46 128H138.1L136.01 122.49H137.23L138.79 126.98ZM144.611 128.09C144.091 128.09 143.621 127.973 143.201 127.74C142.781 127.5 142.451 127.167 142.211 126.74C141.971 126.307 141.851 125.807 141.851 125.24C141.851 124.68 141.975 124.183 142.221 123.75C142.468 123.317 142.805 122.983 143.231 122.75C143.658 122.517 144.135 122.4 144.661 122.4C145.188 122.4 145.665 122.517 146.091 122.75C146.518 122.983 146.855 123.317 147.101 123.75C147.348 124.183 147.471 124.68 147.471 125.24C147.471 125.8 147.345 126.297 147.091 126.73C146.838 127.163 146.491 127.5 146.051 127.74C145.618 127.973 145.138 128.09 144.611 128.09ZM144.611 127.1C144.905 127.1 145.178 127.03 145.431 126.89C145.691 126.75 145.901 126.54 146.061 126.26C146.221 125.98 146.301 125.64 146.301 125.24C146.301 124.84 146.225 124.503 146.071 124.23C145.918 123.95 145.715 123.74 145.461 123.6C145.208 123.46 144.935 123.39 144.641 123.39C144.348 123.39 144.075 123.46 143.821 123.6C143.575 123.74 143.378 123.95 143.231 124.23C143.085 124.503 143.011 124.84 143.011 125.24C143.011 125.833 143.161 126.293 143.461 126.62C143.768 126.94 144.151 127.1 144.611 127.1ZM148.978 121.76C148.772 121.76 148.598 121.69 148.458 121.55C148.318 121.41 148.248 121.237 148.248 121.03C148.248 120.823 148.318 120.65 148.458 120.51C148.598 120.37 148.772 120.3 148.978 120.3C149.178 120.3 149.348 120.37 149.488 120.51C149.628 120.65 149.698 120.823 149.698 121.03C149.698 121.237 149.628 121.41 149.488 121.55C149.348 121.69 149.178 121.76 148.978 121.76ZM149.538 122.49V128H148.398V122.49H149.538ZM151.415 121.76C151.208 121.76 151.035 121.69 150.895 121.55C150.755 121.41 150.685 121.237 150.685 121.03C150.685 120.823 150.755 120.65 150.895 120.51C151.035 120.37 151.208 120.3 151.415 120.3C151.615 120.3 151.785 120.37 151.925 120.51C152.065 120.65 152.135 120.823 152.135 121.03C152.135 121.237 152.065 121.41 151.925 121.55C151.785 121.69 151.615 121.76 151.415 121.76ZM151.975 122.49V128H150.835V122.49H151.975ZM152.892 125.22C152.892 124.667 153.005 124.177 153.232 123.75C153.465 123.323 153.779 122.993 154.172 122.76C154.572 122.52 155.015 122.4 155.502 122.4C155.862 122.4 156.215 122.48 156.562 122.64C156.915 122.793 157.195 123 157.402 123.26V120.6H158.552V128H157.402V127.17C157.215 127.437 156.955 127.657 156.622 127.83C156.295 128.003 155.919 128.09 155.492 128.09C155.012 128.09 154.572 127.97 154.172 127.73C153.779 127.483 153.465 127.143 153.232 126.71C153.005 126.27 152.892 125.773 152.892 125.22ZM157.402 125.24C157.402 124.86 157.322 124.53 157.162 124.25C157.009 123.97 156.805 123.757 156.552 123.61C156.299 123.463 156.025 123.39 155.732 123.39C155.439 123.39 155.165 123.463 154.912 123.61C154.659 123.75 154.452 123.96 154.292 124.24C154.139 124.513 154.062 124.84 154.062 125.22C154.062 125.6 154.139 125.933 154.292 126.22C154.452 126.507 154.659 126.727 154.912 126.88C155.172 127.027 155.445 127.1 155.732 127.1C156.025 127.1 156.299 127.027 156.552 126.88C156.805 126.733 157.009 126.52 157.162 126.24C157.322 125.953 157.402 125.62 157.402 125.24ZM159.469 125.22C159.469 124.667 159.583 124.177 159.809 123.75C160.043 123.323 160.356 122.993 160.749 122.76C161.149 122.52 161.593 122.4 162.079 122.4C162.439 122.4 162.793 122.48 163.139 122.64C163.493 122.793 163.773 123 163.979 123.26V120.6H165.129V128H163.979V127.17C163.793 127.437 163.533 127.657 163.199 127.83C162.873 128.003 162.496 128.09 162.069 128.09C161.589 128.09 161.149 127.97 160.749 127.73C160.356 127.483 160.043 127.143 159.809 126.71C159.583 126.27 159.469 125.773 159.469 125.22ZM163.979 125.24C163.979 124.86 163.899 124.53 163.739 124.25C163.586 123.97 163.383 123.757 163.129 123.61C162.876 123.463 162.603 123.39 162.309 123.39C162.016 123.39 161.743 123.463 161.489 123.61C161.236 123.75 161.029 123.96 160.869 124.24C160.716 124.513 160.639 124.84 160.639 125.22C160.639 125.6 160.716 125.933 160.869 126.22C161.029 126.507 161.236 126.727 161.489 126.88C161.749 127.027 162.023 127.1 162.309 127.1C162.603 127.1 162.876 127.027 163.129 126.88C163.383 126.733 163.586 126.52 163.739 126.24C163.899 125.953 163.979 125.62 163.979 125.24ZM168.787 125.21L170.567 128H169.277L168.087 126.13L166.967 128H165.777L167.557 125.29L165.777 122.49H167.067L168.257 124.36L169.377 122.49H170.567L168.787 125.21ZM173.577 125.21L175.357 128H174.067L172.877 126.13L171.757 128H170.567L172.347 125.29L170.567 122.49H171.857L173.047 124.36L174.167 122.49H175.357L173.577 125.21Z" fill="#C0C0C0"/>
<rect x="67" y="174" width="243" height="12" fill="#4FFF55"/>
<path d="M318.45 177.75V176.71H320.53V184H319.38V177.75H318.45ZM321.896 180.26C321.896 179.107 322.089 178.207 322.476 177.56C322.869 176.907 323.543 176.58 324.496 176.58C325.449 176.58 326.119 176.907 326.506 177.56C326.899 178.207 327.096 179.107 327.096 180.26C327.096 181.427 326.899 182.34 326.506 183C326.119 183.653 325.449 183.98 324.496 183.98C323.543 183.98 322.869 183.653 322.476 183C322.089 182.34 321.896 181.427 321.896 180.26ZM325.976 180.26C325.976 179.72 325.939 179.263 325.866 178.89C325.799 178.517 325.659 178.213 325.446 177.98C325.233 177.74 324.916 177.62 324.496 177.62C324.076 177.62 323.759 177.74 323.546 177.98C323.333 178.213 323.189 178.517 323.116 178.89C323.049 179.263 323.016 179.72 323.016 180.26C323.016 180.82 323.049 181.29 323.116 181.67C323.183 182.05 323.323 182.357 323.536 182.59C323.756 182.823 324.076 182.94 324.496 182.94C324.916 182.94 325.233 182.823 325.446 182.59C325.666 182.357 325.809 182.05 325.876 181.67C325.943 181.29 325.976 180.82 325.976 180.26ZM328.102 180.26C328.102 179.107 328.296 178.207 328.682 177.56C329.076 176.907 329.749 176.58 330.702 176.58C331.656 176.58 332.326 176.907 332.712 177.56C333.106 178.207 333.302 179.107 333.302 180.26C333.302 181.427 333.106 182.34 332.712 183C332.326 183.653 331.656 183.98 330.702 183.98C329.749 183.98 329.076 183.653 328.682 183C328.296 182.34 328.102 181.427 328.102 180.26ZM332.182 180.26C332.182 179.72 332.146 179.263 332.072 178.89C332.006 178.517 331.866 178.213 331.652 177.98C331.439 177.74 331.122 177.62 330.702 177.62C330.282 177.62 329.966 177.74 329.752 177.98C329.539 178.213 329.396 178.517 329.322 178.89C329.256 179.263 329.222 179.72 329.222 180.26C329.222 180.82 329.256 181.29 329.322 181.67C329.389 182.05 329.529 182.357 329.742 182.59C329.962 182.823 330.282 182.94 330.702 182.94C331.122 182.94 331.439 182.823 331.652 182.59C331.872 182.357 332.016 182.05 332.082 181.67C332.149 181.29 332.182 180.82 332.182 180.26ZM334.129 178.47C334.129 177.983 334.269 177.603 334.549 177.33C334.835 177.05 335.202 176.91 335.649 176.91C336.095 176.91 336.459 177.05 336.739 177.33C337.025 177.603 337.169 177.983 337.169 178.47C337.169 178.957 337.025 179.34 336.739 179.62C336.459 179.9 336.095 180.04 335.649 180.04C335.202 180.04 334.835 179.9 334.549 179.62C334.269 179.34 334.129 178.957 334.129 178.47ZM340.229 177.04L336.239 184H335.119L339.109 177.04H340.229ZM335.649 177.6C335.229 177.6 335.019 177.89 335.019 178.47C335.019 179.057 335.229 179.35 335.649 179.35C335.849 179.35 336.002 179.28 336.109 179.14C336.222 178.993 336.279 178.77 336.279 178.47C336.279 177.89 336.069 177.6 335.649 177.6ZM338.199 182.56C338.199 182.073 338.339 181.693 338.619 181.42C338.905 181.14 339.272 181 339.719 181C340.159 181 340.519 181.14 340.799 181.42C341.085 181.693 341.229 182.073 341.229 182.56C341.229 183.047 341.085 183.43 340.799 183.71C340.519 183.99 340.159 184.13 339.719 184.13C339.272 184.13 338.905 183.99 338.619 183.71C338.339 183.43 338.199 183.047 338.199 182.56ZM339.709 181.69C339.289 181.69 339.079 181.98 339.079 182.56C339.079 183.14 339.289 183.43 339.709 183.43C340.129 183.43 340.339 183.14 340.339 182.56C340.339 181.98 340.129 181.69 339.709 181.69Z" fill="#B1B1B1"/>
<path d="M70.04 159.07C69.5733 159.07 69.1533 158.99 68.78 158.83C68.4067 158.663 68.1133 158.43 67.9 158.13C67.6867 157.83 67.58 157.48 67.58 157.08H68.8C68.8267 157.38 68.9433 157.627 69.15 157.82C69.3633 158.013 69.66 158.11 70.04 158.11C70.4333 158.11 70.74 158.017 70.96 157.83C71.18 157.637 71.29 157.39 71.29 157.09C71.29 156.857 71.22 156.667 71.08 156.52C70.9467 156.373 70.7767 156.26 70.57 156.18C70.37 156.1 70.09 156.013 69.73 155.92C69.2767 155.8 68.9067 155.68 68.62 155.56C68.34 155.433 68.1 155.24 67.9 154.98C67.7 154.72 67.6 154.373 67.6 153.94C67.6 153.54 67.7 153.19 67.9 152.89C68.1 152.59 68.38 152.36 68.74 152.2C69.1 152.04 69.5167 151.96 69.99 151.96C70.6633 151.96 71.2133 152.13 71.64 152.47C72.0733 152.803 72.3133 153.263 72.36 153.85H71.1C71.08 153.597 70.96 153.38 70.74 153.2C70.52 153.02 70.23 152.93 69.87 152.93C69.5433 152.93 69.2767 153.013 69.07 153.18C68.8633 153.347 68.76 153.587 68.76 153.9C68.76 154.113 68.8233 154.29 68.95 154.43C69.0833 154.563 69.25 154.67 69.45 154.75C69.65 154.83 69.9233 154.917 70.27 155.01C70.73 155.137 71.1033 155.263 71.39 155.39C71.6833 155.517 71.93 155.713 72.13 155.98C72.3367 156.24 72.44 156.59 72.44 157.03C72.44 157.383 72.3433 157.717 72.15 158.03C71.9633 158.343 71.6867 158.597 71.32 158.79C70.96 158.977 70.5333 159.07 70.04 159.07ZM78.5452 153.49L75.1652 161.59H73.9852L75.1052 158.91L72.9352 153.49H74.2052L75.7552 157.69L77.3652 153.49H78.5452ZM81.9855 153.4C82.4188 153.4 82.8055 153.49 83.1455 153.67C83.4921 153.85 83.7621 154.117 83.9555 154.47C84.1488 154.823 84.2455 155.25 84.2455 155.75V159H83.1155V155.92C83.1155 155.427 82.9921 155.05 82.7455 154.79C82.4988 154.523 82.1621 154.39 81.7355 154.39C81.3088 154.39 80.9688 154.523 80.7155 154.79C80.4688 155.05 80.3455 155.427 80.3455 155.92V159H79.2055V153.49H80.3455V154.12C80.5321 153.893 80.7688 153.717 81.0555 153.59C81.3488 153.463 81.6588 153.4 81.9855 153.4ZM85.1196 156.24C85.1196 155.673 85.2329 155.177 85.4596 154.75C85.6929 154.317 86.0129 153.983 86.4196 153.75C86.8263 153.517 87.2929 153.4 87.8196 153.4C88.4863 153.4 89.0363 153.56 89.4696 153.88C89.9096 154.193 90.2063 154.643 90.3596 155.23H89.1296C89.0296 154.957 88.8696 154.743 88.6496 154.59C88.4296 154.437 88.1529 154.36 87.8196 154.36C87.3529 154.36 86.9796 154.527 86.6996 154.86C86.4263 155.187 86.2896 155.647 86.2896 156.24C86.2896 156.833 86.4263 157.297 86.6996 157.63C86.9796 157.963 87.3529 158.13 87.8196 158.13C88.4796 158.13 88.9163 157.84 89.1296 157.26H90.3596C90.1996 157.82 89.8996 158.267 89.4596 158.6C89.0196 158.927 88.4729 159.09 87.8196 159.09C87.2929 159.09 86.8263 158.973 86.4196 158.74C86.0129 158.5 85.6929 158.167 85.4596 157.74C85.2329 157.307 85.1196 156.807 85.1196 156.24ZM91.8757 152.76C91.669 152.76 91.4957 152.69 91.3557 152.55C91.2157 152.41 91.1457 152.237 91.1457 152.03C91.1457 151.823 91.2157 151.65 91.3557 151.51C91.4957 151.37 91.669 151.3 91.8757 151.3C92.0757 151.3 92.2457 151.37 92.3857 151.51C92.5257 151.65 92.5957 151.823 92.5957 152.03C92.5957 152.237 92.5257 152.41 92.3857 152.55C92.2457 152.69 92.0757 152.76 91.8757 152.76ZM92.4357 153.49V159H91.2957V153.49H92.4357ZM96.5124 153.4C96.9458 153.4 97.3324 153.49 97.6724 153.67C98.0191 153.85 98.2891 154.117 98.4824 154.47C98.6758 154.823 98.7724 155.25 98.7724 155.75V159H97.6424V155.92C97.6424 155.427 97.5191 155.05 97.2724 154.79C97.0258 154.523 96.6891 154.39 96.2624 154.39C95.8358 154.39 95.4958 154.523 95.2424 154.79C94.9958 155.05 94.8724 155.427 94.8724 155.92V159H93.7324V153.49H94.8724V154.12C95.0591 153.893 95.2958 153.717 95.5824 153.59C95.8758 153.463 96.1858 153.4 96.5124 153.4ZM102.247 153.4C102.673 153.4 103.05 153.487 103.377 153.66C103.71 153.827 103.97 154.037 104.157 154.29V153.49H105.307V159.09C105.307 159.597 105.2 160.047 104.987 160.44C104.773 160.84 104.463 161.153 104.057 161.38C103.657 161.607 103.177 161.72 102.617 161.72C101.87 161.72 101.25 161.543 100.757 161.19C100.263 160.843 99.9832 160.37 99.9166 159.77H101.047C101.133 160.057 101.317 160.287 101.597 160.46C101.883 160.64 102.223 160.73 102.617 160.73C103.077 160.73 103.447 160.59 103.727 160.31C104.013 160.03 104.157 159.623 104.157 159.09V158.17C103.963 158.43 103.7 158.65 103.367 158.83C103.04 159.003 102.667 159.09 102.247 159.09C101.767 159.09 101.327 158.97 100.927 158.73C100.533 158.483 100.22 158.143 99.9866 157.71C99.7599 157.27 99.6466 156.773 99.6466 156.22C99.6466 155.667 99.7599 155.177 99.9866 154.75C100.22 154.323 100.533 153.993 100.927 153.76C101.327 153.52 101.767 153.4 102.247 153.4ZM104.157 156.24C104.157 155.86 104.077 155.53 103.917 155.25C103.763 154.97 103.56 154.757 103.307 154.61C103.053 154.463 102.78 154.39 102.487 154.39C102.193 154.39 101.92 154.463 101.667 154.61C101.413 154.75 101.207 154.96 101.047 155.24C100.893 155.513 100.817 155.84 100.817 156.22C100.817 156.6 100.893 156.933 101.047 157.22C101.207 157.507 101.413 157.727 101.667 157.88C101.927 158.027 102.2 158.1 102.487 158.1C102.78 158.1 103.053 158.027 103.307 157.88C103.56 157.733 103.763 157.52 103.917 157.24C104.077 156.953 104.157 156.62 104.157 156.24ZM108.622 156.22C108.622 155.667 108.735 155.177 108.962 154.75C109.195 154.323 109.508 153.993 109.902 153.76C110.302 153.52 110.742 153.4 111.222 153.4C111.655 153.4 112.032 153.487 112.352 153.66C112.678 153.827 112.938 154.037 113.132 154.29V153.49H114.282V159H113.132V158.18C112.938 158.44 112.675 158.657 112.342 158.83C112.008 159.003 111.628 159.09 111.202 159.09C110.728 159.09 110.295 158.97 109.902 158.73C109.508 158.483 109.195 158.143 108.962 157.71C108.735 157.27 108.622 156.773 108.622 156.22ZM113.132 156.24C113.132 155.86 113.052 155.53 112.892 155.25C112.738 154.97 112.535 154.757 112.282 154.61C112.028 154.463 111.755 154.39 111.462 154.39C111.168 154.39 110.895 154.463 110.642 154.61C110.388 154.75 110.182 154.96 110.022 155.24C109.868 155.513 109.792 155.84 109.792 156.22C109.792 156.6 109.868 156.933 110.022 157.22C110.182 157.507 110.388 157.727 110.642 157.88C110.902 158.027 111.175 158.1 111.462 158.1C111.755 158.1 112.028 158.027 112.282 157.88C112.535 157.733 112.738 157.52 112.892 157.24C113.052 156.953 113.132 156.62 113.132 156.24ZM116.719 151.6V159H115.579V151.6H116.719ZM119.156 151.6V159H118.016V151.6H119.156ZM127.84 153.49V159H126.7V158.35C126.52 158.577 126.283 158.757 125.99 158.89C125.703 159.017 125.397 159.08 125.07 159.08C124.637 159.08 124.247 158.99 123.9 158.81C123.56 158.63 123.29 158.363 123.09 158.01C122.897 157.657 122.8 157.23 122.8 156.73V153.49H123.93V156.56C123.93 157.053 124.053 157.433 124.3 157.7C124.547 157.96 124.883 158.09 125.31 158.09C125.737 158.09 126.073 157.96 126.32 157.7C126.573 157.433 126.7 157.053 126.7 156.56V153.49H127.84ZM131.924 153.4C132.357 153.4 132.744 153.49 133.084 153.67C133.431 153.85 133.701 154.117 133.894 154.47C134.087 154.823 134.184 155.25 134.184 155.75V159H133.054V155.92C133.054 155.427 132.931 155.05 132.684 154.79C132.437 154.523 132.101 154.39 131.674 154.39C131.247 154.39 130.907 154.523 130.654 154.79C130.407 155.05 130.284 155.427 130.284 155.92V159H129.144V153.49H130.284V154.12C130.471 153.893 130.707 153.717 130.994 153.59C131.287 153.463 131.597 153.4 131.924 153.4ZM136.768 154.42V157.47C136.768 157.677 136.815 157.827 136.908 157.92C137.008 158.007 137.175 158.05 137.408 158.05H138.108V159H137.208C136.695 159 136.302 158.88 136.028 158.64C135.755 158.4 135.618 158.01 135.618 157.47V154.42H134.968V153.49H135.618V152.12H136.768V153.49H138.108V154.42H136.768ZM140.099 154.29C140.266 154.01 140.486 153.793 140.759 153.64C141.039 153.48 141.369 153.4 141.749 153.4V154.58H141.459C141.012 154.58 140.672 154.693 140.439 154.92C140.212 155.147 140.099 155.54 140.099 156.1V159H138.959V153.49H140.099V154.29ZM142.217 156.22C142.217 155.667 142.33 155.177 142.557 154.75C142.79 154.323 143.104 153.993 143.497 153.76C143.897 153.52 144.337 153.4 144.817 153.4C145.25 153.4 145.627 153.487 145.947 153.66C146.274 153.827 146.534 154.037 146.727 154.29V153.49H147.877V159H146.727V158.18C146.534 158.44 146.27 158.657 145.937 158.83C145.604 159.003 145.224 159.09 144.797 159.09C144.324 159.09 143.89 158.97 143.497 158.73C143.104 158.483 142.79 158.143 142.557 157.71C142.33 157.27 142.217 156.773 142.217 156.22ZM146.727 156.24C146.727 155.86 146.647 155.53 146.487 155.25C146.334 154.97 146.13 154.757 145.877 154.61C145.624 154.463 145.35 154.39 145.057 154.39C144.764 154.39 144.49 154.463 144.237 154.61C143.984 154.75 143.777 154.96 143.617 155.24C143.464 155.513 143.387 155.84 143.387 156.22C143.387 156.6 143.464 156.933 143.617 157.22C143.777 157.507 143.984 157.727 144.237 157.88C144.497 158.027 144.77 158.1 145.057 158.1C145.35 158.1 145.624 158.027 145.877 157.88C146.13 157.733 146.334 157.52 146.487 157.24C146.647 156.953 146.727 156.62 146.727 156.24ZM148.794 156.24C148.794 155.673 148.908 155.177 149.134 154.75C149.368 154.317 149.688 153.983 150.094 153.75C150.501 153.517 150.968 153.4 151.494 153.4C152.161 153.4 152.711 153.56 153.144 153.88C153.584 154.193 153.881 154.643 154.034 155.23H152.804C152.704 154.957 152.544 154.743 152.324 154.59C152.104 154.437 151.828 154.36 151.494 154.36C151.028 154.36 150.654 154.527 150.374 154.86C150.101 155.187 149.964 155.647 149.964 156.24C149.964 156.833 150.101 157.297 150.374 157.63C150.654 157.963 151.028 158.13 151.494 158.13C152.154 158.13 152.591 157.84 152.804 157.26H154.034C153.874 157.82 153.574 158.267 153.134 158.6C152.694 158.927 152.148 159.09 151.494 159.09C150.968 159.09 150.501 158.973 150.094 158.74C149.688 158.5 149.368 158.167 149.134 157.74C148.908 157.307 148.794 156.807 148.794 156.24ZM157.15 156.25L159.69 159H158.15L156.11 156.63V159H154.97V151.6H156.11V155.9L158.11 153.49H159.69L157.15 156.25ZM165.357 156.11C165.357 156.317 165.344 156.503 165.317 156.67H161.107C161.141 157.11 161.304 157.463 161.597 157.73C161.891 157.997 162.251 158.13 162.677 158.13C163.291 158.13 163.724 157.873 163.977 157.36H165.207C165.041 157.867 164.737 158.283 164.297 158.61C163.864 158.93 163.324 159.09 162.677 159.09C162.151 159.09 161.677 158.973 161.257 158.74C160.844 158.5 160.517 158.167 160.277 157.74C160.044 157.307 159.927 156.807 159.927 156.24C159.927 155.673 160.041 155.177 160.267 154.75C160.501 154.317 160.824 153.983 161.237 153.75C161.657 153.517 162.137 153.4 162.677 153.4C163.197 153.4 163.661 153.513 164.067 153.74C164.474 153.967 164.791 154.287 165.017 154.7C165.244 155.107 165.357 155.577 165.357 156.11ZM164.167 155.75C164.161 155.33 164.011 154.993 163.717 154.74C163.424 154.487 163.061 154.36 162.627 154.36C162.234 154.36 161.897 154.487 161.617 154.74C161.337 154.987 161.171 155.323 161.117 155.75H164.167ZM165.899 156.22C165.899 155.667 166.013 155.177 166.239 154.75C166.473 154.323 166.786 153.993 167.179 153.76C167.579 153.52 168.023 153.4 168.509 153.4C168.869 153.4 169.223 153.48 169.569 153.64C169.923 153.793 170.203 154 170.409 154.26V151.6H171.559V159H170.409V158.17C170.223 158.437 169.963 158.657 169.629 158.83C169.303 159.003 168.926 159.09 168.499 159.09C168.019 159.09 167.579 158.97 167.179 158.73C166.786 158.483 166.473 158.143 166.239 157.71C166.013 157.27 165.899 156.773 165.899 156.22ZM170.409 156.24C170.409 155.86 170.329 155.53 170.169 155.25C170.016 154.97 169.813 154.757 169.559 154.61C169.306 154.463 169.033 154.39 168.739 154.39C168.446 154.39 168.173 154.463 167.919 154.61C167.666 154.75 167.459 154.96 167.299 155.24C167.146 155.513 167.069 155.84 167.069 156.22C167.069 156.6 167.146 156.933 167.299 157.22C167.459 157.507 167.666 157.727 167.919 157.88C168.179 158.027 168.453 158.1 168.739 158.1C169.033 158.1 169.306 158.027 169.559 157.88C169.813 157.733 170.016 157.52 170.169 157.24C170.329 156.953 170.409 156.62 170.409 156.24ZM174.874 156.24C174.874 155.673 174.988 155.177 175.214 154.75C175.448 154.317 175.768 153.983 176.174 153.75C176.581 153.517 177.048 153.4 177.574 153.4C178.241 153.4 178.791 153.56 179.224 153.88C179.664 154.193 179.961 154.643 180.114 155.23H178.884C178.784 154.957 178.624 154.743 178.404 154.59C178.184 154.437 177.908 154.36 177.574 154.36C177.108 154.36 176.734 154.527 176.454 154.86C176.181 155.187 176.044 155.647 176.044 156.24C176.044 156.833 176.181 157.297 176.454 157.63C176.734 157.963 177.108 158.13 177.574 158.13C178.234 158.13 178.671 157.84 178.884 157.26H180.114C179.954 157.82 179.654 158.267 179.214 158.6C178.774 158.927 178.228 159.09 177.574 159.09C177.048 159.09 176.581 158.973 176.174 158.74C175.768 158.5 175.448 158.167 175.214 157.74C174.988 157.307 174.874 156.807 174.874 156.24ZM183.44 159.09C182.92 159.09 182.45 158.973 182.03 158.74C181.61 158.5 181.28 158.167 181.04 157.74C180.8 157.307 180.68 156.807 180.68 156.24C180.68 155.68 180.804 155.183 181.05 154.75C181.297 154.317 181.634 153.983 182.06 153.75C182.487 153.517 182.964 153.4 183.49 153.4C184.017 153.4 184.494 153.517 184.92 153.75C185.347 153.983 185.684 154.317 185.93 154.75C186.177 155.183 186.3 155.68 186.3 156.24C186.3 156.8 186.174 157.297 185.92 157.73C185.667 158.163 185.32 158.5 184.88 158.74C184.447 158.973 183.967 159.09 183.44 159.09ZM183.44 158.1C183.734 158.1 184.007 158.03 184.26 157.89C184.52 157.75 184.73 157.54 184.89 157.26C185.05 156.98 185.13 156.64 185.13 156.24C185.13 155.84 185.054 155.503 184.9 155.23C184.747 154.95 184.544 154.74 184.29 154.6C184.037 154.46 183.764 154.39 183.47 154.39C183.177 154.39 182.904 154.46 182.65 154.6C182.404 154.74 182.207 154.95 182.06 155.23C181.914 155.503 181.84 155.84 181.84 156.24C181.84 156.833 181.99 157.293 182.29 157.62C182.597 157.94 182.98 158.1 183.44 158.1ZM190.007 153.4C190.441 153.4 190.827 153.49 191.167 153.67C191.514 153.85 191.784 154.117 191.977 154.47C192.171 154.823 192.267 155.25 192.267 155.75V159H191.137V155.92C191.137 155.427 191.014 155.05 190.767 154.79C190.521 154.523 190.184 154.39 189.757 154.39C189.331 154.39 188.991 154.523 188.737 154.79C188.491 155.05 188.367 155.427 188.367 155.92V159H187.227V153.49H188.367V154.12C188.554 153.893 188.791 153.717 189.077 153.59C189.371 153.463 189.681 153.4 190.007 153.4ZM194.851 154.42V157.47C194.851 157.677 194.898 157.827 194.991 157.92C195.091 158.007 195.258 158.05 195.491 158.05H196.191V159H195.291C194.778 159 194.385 158.88 194.111 158.64C193.838 158.4 193.701 158.01 193.701 157.47V154.42H193.051V153.49H193.701V152.12H194.851V153.49H196.191V154.42H194.851ZM202.092 156.11C202.092 156.317 202.079 156.503 202.052 156.67H197.842C197.876 157.11 198.039 157.463 198.332 157.73C198.626 157.997 198.986 158.13 199.412 158.13C200.026 158.13 200.459 157.873 200.712 157.36H201.942C201.776 157.867 201.472 158.283 201.032 158.61C200.599 158.93 200.059 159.09 199.412 159.09C198.886 159.09 198.412 158.973 197.992 158.74C197.579 158.5 197.252 158.167 197.012 157.74C196.779 157.307 196.662 156.807 196.662 156.24C196.662 155.673 196.776 155.177 197.002 154.75C197.236 154.317 197.559 153.983 197.972 153.75C198.392 153.517 198.872 153.4 199.412 153.4C199.932 153.4 200.396 153.513 200.802 153.74C201.209 153.967 201.526 154.287 201.752 154.7C201.979 155.107 202.092 155.577 202.092 156.11ZM200.902 155.75C200.896 155.33 200.746 154.993 200.452 154.74C200.159 154.487 199.796 154.36 199.362 154.36C198.969 154.36 198.632 154.487 198.352 154.74C198.072 154.987 197.906 155.323 197.852 155.75H200.902ZM205.794 153.4C206.227 153.4 206.614 153.49 206.954 153.67C207.301 153.85 207.571 154.117 207.764 154.47C207.957 154.823 208.054 155.25 208.054 155.75V159H206.924V155.92C206.924 155.427 206.801 155.05 206.554 154.79C206.307 154.523 205.971 154.39 205.544 154.39C205.117 154.39 204.777 154.523 204.524 154.79C204.277 155.05 204.154 155.427 204.154 155.92V159H203.014V153.49H204.154V154.12C204.341 153.893 204.577 153.717 204.864 153.59C205.157 153.463 205.467 153.4 205.794 153.4ZM210.638 154.42V157.47C210.638 157.677 210.685 157.827 210.778 157.92C210.878 158.007 211.045 158.05 211.278 158.05H211.978V159H211.078C210.565 159 210.172 158.88 209.898 158.64C209.625 158.4 209.488 158.01 209.488 157.47V154.42H208.838V153.49H209.488V152.12H210.638V153.49H211.978V154.42H210.638Z" fill="#828282"/>
<path d="M67.37 215.51C67.37 214.83 67.5267 214.22 67.84 213.68C68.16 213.14 68.59 212.72 69.13 212.42C69.6767 212.113 70.2733 211.96 70.92 211.96C71.66 211.96 72.3167 212.143 72.89 212.51C73.47 212.87 73.89 213.383 74.15 214.05H72.78C72.6 213.683 72.35 213.41 72.03 213.23C71.71 213.05 71.34 212.96 70.92 212.96C70.46 212.96 70.05 213.063 69.69 213.27C69.33 213.477 69.0467 213.773 68.84 214.16C68.64 214.547 68.54 214.997 68.54 215.51C68.54 216.023 68.64 216.473 68.84 216.86C69.0467 217.247 69.33 217.547 69.69 217.76C70.05 217.967 70.46 218.07 70.92 218.07C71.34 218.07 71.71 217.98 72.03 217.8C72.35 217.62 72.6 217.347 72.78 216.98H74.15C73.89 217.647 73.47 218.16 72.89 218.52C72.3167 218.88 71.66 219.06 70.92 219.06C70.2667 219.06 69.67 218.91 69.13 218.61C68.59 218.303 68.16 217.88 67.84 217.34C67.5267 216.8 67.37 216.19 67.37 215.51ZM77.6744 219.09C77.1544 219.09 76.6844 218.973 76.2644 218.74C75.8444 218.5 75.5144 218.167 75.2744 217.74C75.0344 217.307 74.9144 216.807 74.9144 216.24C74.9144 215.68 75.0377 215.183 75.2844 214.75C75.531 214.317 75.8677 213.983 76.2944 213.75C76.721 213.517 77.1977 213.4 77.7244 213.4C78.251 213.4 78.7277 213.517 79.1544 213.75C79.581 213.983 79.9177 214.317 80.1644 214.75C80.411 215.183 80.5344 215.68 80.5344 216.24C80.5344 216.8 80.4077 217.297 80.1544 217.73C79.901 218.163 79.5544 218.5 79.1144 218.74C78.681 218.973 78.201 219.09 77.6744 219.09ZM77.6744 218.1C77.9677 218.1 78.241 218.03 78.4944 217.89C78.7544 217.75 78.9644 217.54 79.1244 217.26C79.2844 216.98 79.3644 216.64 79.3644 216.24C79.3644 215.84 79.2877 215.503 79.1344 215.23C78.981 214.95 78.7777 214.74 78.5244 214.6C78.271 214.46 77.9977 214.39 77.7044 214.39C77.411 214.39 77.1377 214.46 76.8844 214.6C76.6377 214.74 76.441 214.95 76.2944 215.23C76.1477 215.503 76.0744 215.84 76.0744 216.24C76.0744 216.833 76.2244 217.293 76.5244 217.62C76.831 217.94 77.2144 218.1 77.6744 218.1ZM88.1313 213.4C88.5647 213.4 88.9513 213.49 89.2913 213.67C89.638 213.85 89.908 214.117 90.1013 214.47C90.3013 214.823 90.4013 215.25 90.4013 215.75V219H89.2713V215.92C89.2713 215.427 89.148 215.05 88.9013 214.79C88.6547 214.523 88.318 214.39 87.8913 214.39C87.4647 214.39 87.1247 214.523 86.8713 214.79C86.6247 215.05 86.5013 215.427 86.5013 215.92V219H85.3713V215.92C85.3713 215.427 85.248 215.05 85.0013 214.79C84.7547 214.523 84.418 214.39 83.9913 214.39C83.5647 214.39 83.2247 214.523 82.9713 214.79C82.7247 215.05 82.6013 215.427 82.6013 215.92V219H81.4613V213.49H82.6013V214.12C82.788 213.893 83.0247 213.717 83.3113 213.59C83.598 213.463 83.9047 213.4 84.2313 213.4C84.6713 213.4 85.0647 213.493 85.4113 213.68C85.758 213.867 86.0247 214.137 86.2113 214.49C86.378 214.157 86.638 213.893 86.9913 213.7C87.3447 213.5 87.7247 213.4 88.1313 213.4ZM98.322 213.4C98.7553 213.4 99.142 213.49 99.482 213.67C99.8286 213.85 100.099 214.117 100.292 214.47C100.492 214.823 100.592 215.25 100.592 215.75V219H99.462V215.92C99.462 215.427 99.3386 215.05 99.092 214.79C98.8453 214.523 98.5086 214.39 98.082 214.39C97.6553 214.39 97.3153 214.523 97.062 214.79C96.8153 215.05 96.692 215.427 96.692 215.92V219H95.562V215.92C95.562 215.427 95.4386 215.05 95.192 214.79C94.9453 214.523 94.6086 214.39 94.182 214.39C93.7553 214.39 93.4153 214.523 93.162 214.79C92.9153 215.05 92.792 215.427 92.792 215.92V219H91.652V213.49H92.792V214.12C92.9786 213.893 93.2153 213.717 93.502 213.59C93.7886 213.463 94.0953 213.4 94.422 213.4C94.862 213.4 95.2553 213.493 95.602 213.68C95.9486 213.867 96.2153 214.137 96.402 214.49C96.5686 214.157 96.8286 213.893 97.182 213.7C97.5353 213.5 97.9153 213.4 98.322 213.4ZM102.423 212.76C102.216 212.76 102.043 212.69 101.903 212.55C101.763 212.41 101.693 212.237 101.693 212.03C101.693 211.823 101.763 211.65 101.903 211.51C102.043 211.37 102.216 211.3 102.423 211.3C102.623 211.3 102.793 211.37 102.933 211.51C103.073 211.65 103.143 211.823 103.143 212.03C103.143 212.237 103.073 212.41 102.933 212.55C102.793 212.69 102.623 212.76 102.423 212.76ZM102.983 213.49V219H101.843V213.49H102.983ZM105.609 214.42V217.47C105.609 217.677 105.656 217.827 105.749 217.92C105.849 218.007 106.016 218.05 106.249 218.05H106.949V219H106.049C105.536 219 105.143 218.88 104.869 218.64C104.596 218.4 104.459 218.01 104.459 217.47V214.42H103.809V213.49H104.459V212.12H105.609V213.49H106.949V214.42H105.609ZM112.488 219.07C112.021 219.07 111.601 218.99 111.228 218.83C110.854 218.663 110.561 218.43 110.348 218.13C110.134 217.83 110.028 217.48 110.028 217.08H111.248C111.274 217.38 111.391 217.627 111.598 217.82C111.811 218.013 112.108 218.11 112.488 218.11C112.881 218.11 113.188 218.017 113.408 217.83C113.628 217.637 113.738 217.39 113.738 217.09C113.738 216.857 113.668 216.667 113.528 216.52C113.394 216.373 113.224 216.26 113.018 216.18C112.818 216.1 112.538 216.013 112.178 215.92C111.724 215.8 111.354 215.68 111.068 215.56C110.788 215.433 110.548 215.24 110.348 214.98C110.148 214.72 110.048 214.373 110.048 213.94C110.048 213.54 110.148 213.19 110.348 212.89C110.548 212.59 110.828 212.36 111.188 212.2C111.548 212.04 111.964 211.96 112.438 211.96C113.111 211.96 113.661 212.13 114.088 212.47C114.521 212.803 114.761 213.263 114.808 213.85H113.548C113.528 213.597 113.408 213.38 113.188 213.2C112.968 213.02 112.678 212.93 112.318 212.93C111.991 212.93 111.724 213.013 111.518 213.18C111.311 213.347 111.208 213.587 111.208 213.9C111.208 214.113 111.271 214.29 111.398 214.43C111.531 214.563 111.698 214.67 111.898 214.75C112.098 214.83 112.371 214.917 112.718 215.01C113.178 215.137 113.551 215.263 113.838 215.39C114.131 215.517 114.378 215.713 114.578 215.98C114.784 216.24 114.888 216.59 114.888 217.03C114.888 217.383 114.791 217.717 114.598 218.03C114.411 218.343 114.134 218.597 113.768 218.79C113.408 218.977 112.981 219.07 112.488 219.07ZM120.993 213.49L117.613 221.59H116.433L117.553 218.91L115.383 213.49H116.653L118.203 217.69L119.813 213.49H120.993ZM124.433 213.4C124.866 213.4 125.253 213.49 125.593 213.67C125.94 213.85 126.21 214.117 126.403 214.47C126.596 214.823 126.693 215.25 126.693 215.75V219H125.563V215.92C125.563 215.427 125.44 215.05 125.193 214.79C124.946 214.523 124.61 214.39 124.183 214.39C123.756 214.39 123.416 214.523 123.163 214.79C122.916 215.05 122.793 215.427 122.793 215.92V219H121.653V213.49H122.793V214.12C122.98 213.893 123.216 213.717 123.503 213.59C123.796 213.463 124.106 213.4 124.433 213.4ZM127.567 216.24C127.567 215.673 127.681 215.177 127.907 214.75C128.141 214.317 128.461 213.983 128.867 213.75C129.274 213.517 129.741 213.4 130.267 213.4C130.934 213.4 131.484 213.56 131.917 213.88C132.357 214.193 132.654 214.643 132.807 215.23H131.577C131.477 214.957 131.317 214.743 131.097 214.59C130.877 214.437 130.601 214.36 130.267 214.36C129.801 214.36 129.427 214.527 129.147 214.86C128.874 215.187 128.737 215.647 128.737 216.24C128.737 216.833 128.874 217.297 129.147 217.63C129.427 217.963 129.801 218.13 130.267 218.13C130.927 218.13 131.364 217.84 131.577 217.26H132.807C132.647 217.82 132.347 218.267 131.907 218.6C131.467 218.927 130.921 219.09 130.267 219.09C129.741 219.09 129.274 218.973 128.867 218.74C128.461 218.5 128.141 218.167 127.907 217.74C127.681 217.307 127.567 216.807 127.567 216.24ZM138.793 216.11C138.793 216.317 138.78 216.503 138.753 216.67H134.543C134.577 217.11 134.74 217.463 135.033 217.73C135.327 217.997 135.687 218.13 136.113 218.13C136.727 218.13 137.16 217.873 137.413 217.36H138.643C138.477 217.867 138.173 218.283 137.733 218.61C137.3 218.93 136.76 219.09 136.113 219.09C135.587 219.09 135.113 218.973 134.693 218.74C134.28 218.5 133.953 218.167 133.713 217.74C133.48 217.307 133.363 216.807 133.363 216.24C133.363 215.673 133.477 215.177 133.703 214.75C133.937 214.317 134.26 213.983 134.673 213.75C135.093 213.517 135.573 213.4 136.113 213.4C136.633 213.4 137.097 213.513 137.503 213.74C137.91 213.967 138.227 214.287 138.453 214.7C138.68 215.107 138.793 215.577 138.793 216.11ZM137.603 215.75C137.597 215.33 137.447 214.993 137.153 214.74C136.86 214.487 136.497 214.36 136.063 214.36C135.67 214.36 135.333 214.487 135.053 214.74C134.773 214.987 134.607 215.323 134.553 215.75H137.603ZM139.335 216.22C139.335 215.667 139.449 215.177 139.675 214.75C139.909 214.323 140.222 213.993 140.615 213.76C141.015 213.52 141.459 213.4 141.945 213.4C142.305 213.4 142.659 213.48 143.005 213.64C143.359 213.793 143.639 214 143.845 214.26V211.6H144.995V219H143.845V218.17C143.659 218.437 143.399 218.657 143.065 218.83C142.739 219.003 142.362 219.09 141.935 219.09C141.455 219.09 141.015 218.97 140.615 218.73C140.222 218.483 139.909 218.143 139.675 217.71C139.449 217.27 139.335 216.773 139.335 216.22ZM143.845 216.24C143.845 215.86 143.765 215.53 143.605 215.25C143.452 214.97 143.249 214.757 142.995 214.61C142.742 214.463 142.469 214.39 142.175 214.39C141.882 214.39 141.609 214.463 141.355 214.61C141.102 214.75 140.895 214.96 140.735 215.24C140.582 215.513 140.505 215.84 140.505 216.22C140.505 216.6 140.582 216.933 140.735 217.22C140.895 217.507 141.102 217.727 141.355 217.88C141.615 218.027 141.889 218.1 142.175 218.1C142.469 218.1 142.742 218.027 142.995 217.88C143.249 217.733 143.452 217.52 143.605 217.24C143.765 216.953 143.845 216.62 143.845 216.24ZM150.98 219.07C150.514 219.07 150.094 218.99 149.72 218.83C149.347 218.663 149.054 218.43 148.84 218.13C148.627 217.83 148.52 217.48 148.52 217.08H149.74C149.767 217.38 149.884 217.627 150.09 217.82C150.304 218.013 150.6 218.11 150.98 218.11C151.374 218.11 151.68 218.017 151.9 217.83C152.12 217.637 152.23 217.39 152.23 217.09C152.23 216.857 152.16 216.667 152.02 216.52C151.887 216.373 151.717 216.26 151.51 216.18C151.31 216.1 151.03 216.013 150.67 215.92C150.217 215.8 149.847 215.68 149.56 215.56C149.28 215.433 149.04 215.24 148.84 214.98C148.64 214.72 148.54 214.373 148.54 213.94C148.54 213.54 148.64 213.19 148.84 212.89C149.04 212.59 149.32 212.36 149.68 212.2C150.04 212.04 150.457 211.96 150.93 211.96C151.604 211.96 152.154 212.13 152.58 212.47C153.014 212.803 153.254 213.263 153.3 213.85H152.04C152.02 213.597 151.9 213.38 151.68 213.2C151.46 213.02 151.17 212.93 150.81 212.93C150.484 212.93 150.217 213.013 150.01 213.18C149.804 213.347 149.7 213.587 149.7 213.9C149.7 214.113 149.764 214.29 149.89 214.43C150.024 214.563 150.19 214.67 150.39 214.75C150.59 214.83 150.864 214.917 151.21 215.01C151.67 215.137 152.044 215.263 152.33 215.39C152.624 215.517 152.87 215.713 153.07 215.98C153.277 216.24 153.38 216.59 153.38 217.03C153.38 217.383 153.284 217.717 153.09 218.03C152.904 218.343 152.627 218.597 152.26 218.79C151.9 218.977 151.474 219.07 150.98 219.07ZM159.515 213.49V219H158.375V218.35C158.195 218.577 157.959 218.757 157.665 218.89C157.379 219.017 157.072 219.08 156.745 219.08C156.312 219.08 155.922 218.99 155.575 218.81C155.235 218.63 154.965 218.363 154.765 218.01C154.572 217.657 154.475 217.23 154.475 216.73V213.49H155.605V216.56C155.605 217.053 155.729 217.433 155.975 217.7C156.222 217.96 156.559 218.09 156.985 218.09C157.412 218.09 157.749 217.96 157.995 217.7C158.249 217.433 158.375 217.053 158.375 216.56V213.49H159.515ZM160.44 216.24C160.44 215.673 160.553 215.177 160.78 214.75C161.013 214.317 161.333 213.983 161.74 213.75C162.146 213.517 162.613 213.4 163.14 213.4C163.806 213.4 164.356 213.56 164.79 213.88C165.23 214.193 165.526 214.643 165.68 215.23H164.45C164.35 214.957 164.19 214.743 163.97 214.59C163.75 214.437 163.473 214.36 163.14 214.36C162.673 214.36 162.3 214.527 162.02 214.86C161.746 215.187 161.61 215.647 161.61 216.24C161.61 216.833 161.746 217.297 162.02 217.63C162.3 217.963 162.673 218.13 163.14 218.13C163.8 218.13 164.236 217.84 164.45 217.26H165.68C165.52 217.82 165.22 218.267 164.78 218.6C164.34 218.927 163.793 219.09 163.14 219.09C162.613 219.09 162.146 218.973 161.74 218.74C161.333 218.5 161.013 218.167 160.78 217.74C160.553 217.307 160.44 216.807 160.44 216.24ZM166.236 216.24C166.236 215.673 166.349 215.177 166.576 214.75C166.809 214.317 167.129 213.983 167.536 213.75C167.942 213.517 168.409 213.4 168.936 213.4C169.602 213.4 170.152 213.56 170.586 213.88C171.026 214.193 171.322 214.643 171.476 215.23H170.246C170.146 214.957 169.986 214.743 169.766 214.59C169.546 214.437 169.269 214.36 168.936 214.36C168.469 214.36 168.096 214.527 167.816 214.86C167.542 215.187 167.406 215.647 167.406 216.24C167.406 216.833 167.542 217.297 167.816 217.63C168.096 217.963 168.469 218.13 168.936 218.13C169.596 218.13 170.032 217.84 170.246 217.26H171.476C171.316 217.82 171.016 218.267 170.576 218.6C170.136 218.927 169.589 219.09 168.936 219.09C168.409 219.09 167.942 218.973 167.536 218.74C167.129 218.5 166.809 218.167 166.576 217.74C166.349 217.307 166.236 216.807 166.236 216.24ZM177.462 216.11C177.462 216.317 177.448 216.503 177.422 216.67H173.212C173.245 217.11 173.408 217.463 173.702 217.73C173.995 217.997 174.355 218.13 174.782 218.13C175.395 218.13 175.828 217.873 176.082 217.36H177.312C177.145 217.867 176.842 218.283 176.402 218.61C175.968 218.93 175.428 219.09 174.782 219.09C174.255 219.09 173.782 218.973 173.362 218.74C172.948 218.5 172.622 218.167 172.382 217.74C172.148 217.307 172.032 216.807 172.032 216.24C172.032 215.673 172.145 215.177 172.372 214.75C172.605 214.317 172.928 213.983 173.342 213.75C173.762 213.517 174.242 213.4 174.782 213.4C175.302 213.4 175.765 213.513 176.172 213.74C176.578 213.967 176.895 214.287 177.122 214.7C177.348 215.107 177.462 215.577 177.462 216.11ZM176.272 215.75C176.265 215.33 176.115 214.993 175.822 214.74C175.528 214.487 175.165 214.36 174.732 214.36C174.338 214.36 174.002 214.487 173.722 214.74C173.442 214.987 173.275 215.323 173.222 215.75H176.272ZM180.384 219.09C179.95 219.09 179.56 219.013 179.214 218.86C178.874 218.7 178.604 218.487 178.404 218.22C178.204 217.947 178.097 217.643 178.084 217.31H179.264C179.284 217.543 179.394 217.74 179.594 217.9C179.8 218.053 180.057 218.13 180.364 218.13C180.684 218.13 180.93 218.07 181.104 217.95C181.284 217.823 181.374 217.663 181.374 217.47C181.374 217.263 181.274 217.11 181.074 217.01C180.88 216.91 180.57 216.8 180.144 216.68C179.73 216.567 179.394 216.457 179.134 216.35C178.874 216.243 178.647 216.08 178.454 215.86C178.267 215.64 178.174 215.35 178.174 214.99C178.174 214.697 178.26 214.43 178.434 214.19C178.607 213.943 178.854 213.75 179.174 213.61C179.5 213.47 179.874 213.4 180.294 213.4C180.92 213.4 181.424 213.56 181.804 213.88C182.19 214.193 182.397 214.623 182.424 215.17H181.284C181.264 214.923 181.164 214.727 180.984 214.58C180.804 214.433 180.56 214.36 180.254 214.36C179.954 214.36 179.724 214.417 179.564 214.53C179.404 214.643 179.324 214.793 179.324 214.98C179.324 215.127 179.377 215.25 179.484 215.35C179.59 215.45 179.72 215.53 179.874 215.59C180.027 215.643 180.254 215.713 180.554 215.8C180.954 215.907 181.28 216.017 181.534 216.13C181.794 216.237 182.017 216.397 182.204 216.61C182.39 216.823 182.487 217.107 182.494 217.46C182.494 217.773 182.407 218.053 182.234 218.3C182.06 218.547 181.814 218.74 181.494 218.88C181.18 219.02 180.81 219.09 180.384 219.09ZM185.525 219.09C185.092 219.09 184.702 219.013 184.355 218.86C184.015 218.7 183.745 218.487 183.545 218.22C183.345 217.947 183.239 217.643 183.225 217.31H184.405C184.425 217.543 184.535 217.74 184.735 217.9C184.942 218.053 185.199 218.13 185.505 218.13C185.825 218.13 186.072 218.07 186.245 217.95C186.425 217.823 186.515 217.663 186.515 217.47C186.515 217.263 186.415 217.11 186.215 217.01C186.022 216.91 185.712 216.8 185.285 216.68C184.872 216.567 184.535 216.457 184.275 216.35C184.015 216.243 183.789 216.08 183.595 215.86C183.409 215.64 183.315 215.35 183.315 214.99C183.315 214.697 183.402 214.43 183.575 214.19C183.749 213.943 183.995 213.75 184.315 213.61C184.642 213.47 185.015 213.4 185.435 213.4C186.062 213.4 186.565 213.56 186.945 213.88C187.332 214.193 187.539 214.623 187.565 215.17H186.425C186.405 214.923 186.305 214.727 186.125 214.58C185.945 214.433 185.702 214.36 185.395 214.36C185.095 214.36 184.865 214.417 184.705 214.53C184.545 214.643 184.465 214.793 184.465 214.98C184.465 215.127 184.519 215.25 184.625 215.35C184.732 215.45 184.862 215.53 185.015 215.59C185.169 215.643 185.395 215.713 185.695 215.8C186.095 215.907 186.422 216.017 186.675 216.13C186.935 216.237 187.159 216.397 187.345 216.61C187.532 216.823 187.629 217.107 187.635 217.46C187.635 217.773 187.549 218.053 187.375 218.3C187.202 218.547 186.955 218.74 186.635 218.88C186.322 219.02 185.952 219.09 185.525 219.09ZM190.977 214.42H189.957V219H188.807V214.42H188.157V213.49H188.807V213.1C188.807 212.467 188.974 212.007 189.307 211.72C189.647 211.427 190.177 211.28 190.897 211.28V212.23C190.551 212.23 190.307 212.297 190.167 212.43C190.027 212.557 189.957 212.78 189.957 213.1V213.49H190.977V214.42ZM196.777 213.49V219H195.637V218.35C195.457 218.577 195.221 218.757 194.927 218.89C194.641 219.017 194.334 219.08 194.007 219.08C193.574 219.08 193.184 218.99 192.837 218.81C192.497 218.63 192.227 218.363 192.027 218.01C191.834 217.657 191.737 217.23 191.737 216.73V213.49H192.867V216.56C192.867 217.053 192.991 217.433 193.237 217.7C193.484 217.96 193.821 218.09 194.247 218.09C194.674 218.09 195.011 217.96 195.257 217.7C195.511 217.433 195.637 217.053 195.637 216.56V213.49H196.777ZM199.222 211.6V219H198.082V211.6H199.222ZM201.658 211.6V219H200.518V211.6H201.658ZM207.915 213.49L204.535 221.59H203.355L204.475 218.91L202.305 213.49H203.575L205.125 217.69L206.735 213.49H207.915Z" fill="#4FFF55"/>
<defs>
<linearGradient id="paint0_linear_2005_4336" x1="292.5" y1="60" x2="293" y2="1150.5" gradientUnits="userSpaceOnUse">
<stop stop-color="#212121"/>
<stop offset="1" stop-opacity="0"/>
</linearGradient>
</defs>
</svg>
